<svg width="128" height="128" viewBox="0 0 128 128" fill="none" xmlns="http://www.w3.org/2000/svg">
<rect width="128" height="128" fill="white"/>
<rect x="48" y="48" width="32" height="32" rx="4" fill="#83B3D3"/>
<path d="M52.2544 56.1819L63.9271 69.9637L75.5635 56.2546L52.2544 56.1819Z" fill="#23A9E1"/>
<path d="M61.1275 61.3455H67.4184C66.9457 61.0546 65.8184 59.6728 65.2366 60.1819C65.2002 60.2183 63.4548 58.1092 62.3275 59.1274C61.3457 60.0364 60.8729 59.0183 59.782 59.7092C58.4729 60.5819 60.5093 61.0546 61.1275 61.3455ZM70.8366 60.0728L67.2729 60.1092C68.6911 58.4728 69.3093 58.6546 70.8366 60.0728Z" fill="white"/>
<path d="M74.4 57.3091V56.4364H75.1636L74.4 57.3091ZM56.5091 60.7273C56.5455 60.7636 57.3818 59.8545 58.7273 58.9455C59.9636 58.1091 61.8545 57.1636 63.9636 57.1636C66.0727 57.1636 68 58.1455 69.2364 58.9818C70.5818 59.8545 71.4182 60.7273 71.4545 60.7636L70.5455 61.8545C68.9091 62.0727 67.7455 63.2727 66.1455 63.0182C65.3455 62.8727 65.3091 62.4364 65.0909 61.9636C64.9091 61.6 64.6182 61.6727 64.2545 61.5273C63.9273 61.3818 63.7091 61.1273 63.0182 61.2727C62.4364 61.4182 62.3636 62.3273 61.6 62.2909C61.2 62.2545 61.1636 61.7091 60.5818 60.9818C59.0909 59.2 57.7311 59.422 56.7857 61.0583L56.5091 60.7273ZM53.4545 56.4364V57.1273L52.8727 56.4364H53.4545ZM73.0545 56.4364H74.2182V57.5273L73.0545 58.9091V56.4364ZM71.5636 60.5818V56.4364H72.8364V59.1273L71.5636 60.5818ZM71.3818 56.8V60.4C70.9818 60 70.5455 59.6364 70.0727 59.3091L71.3818 56.8ZM69.8909 56.6909V59.1636C69.7091 59.0545 69.5636 58.9091 69.3455 58.8C69.0909 58.6545 68.8364 58.4727 68.5455 58.3273L69.8909 56.6909ZM68.2909 56.6182V58.1818C67.9273 58 67.5273 57.8182 67.1636 57.6364L68.2909 56.6182ZM68.5091 56.4364H69.8545L68.5091 58.1091V56.4364ZM70.0727 56.4364H71.3818L70.0727 59.0182V56.4364ZM66.8727 56.4364H68.2909L67.0182 57.5636C66.9818 57.5636 66.9455 57.5273 66.9091 57.5273L66.8727 56.4364ZM66.6909 56.5818V57.4545C66.3273 57.3091 65.9636 57.2 65.5636 57.1273L66.6909 56.5818ZM65.1636 56.5818V57.0545C64.9091 57.0182 64.6545 56.9818 64.3636 56.9455L65.1636 56.5818ZM62.6909 56.5818L63.4909 56.9455C63.2 56.9455 62.9455 56.9818 62.6909 57.0545V56.5818ZM61.2 56.5818L62.3273 57.1273C61.9273 57.2 61.5636 57.3091 61.2 57.4545V56.5818ZM62.5091 57.0182L61.3091 56.4364H62.5091V57.0182ZM63.7818 56.8727L62.7636 56.4H63.7818V56.8727ZM64.0364 56.4364H65.0909L64.0364 56.9091V56.4364ZM65.3818 56.4364H66.5455L65.3818 57.0182V56.4364ZM60.8727 57.5636L59.6 56.4364H61.0182V57.5273L60.8727 57.5636ZM59.5636 56.6182L60.6909 57.6C60.2909 57.7455 59.9273 57.9273 59.5636 58.1455V56.6182ZM58 56.6909L59.3091 58.3273C58.8364 58.5818 58.4 58.8727 58 59.2V56.6909ZM56.4727 56.8L57.7818 59.3455C57.3091 59.7091 56.8727 60.0727 56.4727 60.5091V56.8ZM57.8182 58.9818L56.5091 56.4H57.8182V58.9818ZM59.3818 58.0727L58.0364 56.4H59.3818V58.0727ZM54.8 58.7273L53.6364 57.3455V56.4364H54.8V58.7273ZM55.0182 56.4364H56.2909V60.5091L55.0182 58.9818V56.4364ZM52 56V61.3091L64 75.8182L76 61.4545V56H52Z" fill="#491213"/>
<path d="M63.0547 72.7272L64.0002 71.2L64.9456 72.7272L64.0002 74.2545L63.0547 72.7272Z" fill="#23A9E1"/>
<path d="M65.8907 67.1272C64.6544 66.3999 64.9453 65.8545 65.9635 65.3454C66.5089 65.0909 67.7089 64.109 68.1817 64.4363L65.8907 67.1272ZM65.0544 68.0363C64.3271 67.9999 63.4907 67.8909 62.7635 68.0727C63.1998 68.1818 64.2907 68.509 63.2726 68.7636C63.6362 69.2727 64.218 69.2363 64.5817 68.7999C64.4362 68.7272 64.3271 68.6181 64.218 68.5454C64.618 68.4363 64.9817 68.2181 65.0544 68.0363ZM65.4907 67.4545C65.1635 67.1636 64.7998 67.1636 64.5089 67.4545C64.0726 66.6909 62.5453 66.9454 61.818 66.8363C62.218 67.7818 65.3089 67.9636 65.4907 67.4545ZM63.018 66.6545C62.4362 66.4727 60.5453 66.509 61.7817 65.9999C62.1817 65.8545 64.218 66.0363 63.018 66.6545ZM63.7453 65.5636C63.5635 65.1636 63.8907 64.6908 64.3635 65.0545C64.7998 65.3454 64.1453 65.7818 63.7453 65.5636ZM62.6908 65.5999C61.8544 65.8545 60.7635 65.309 62.1089 65.0545C62.9453 64.8727 63.818 65.2363 62.6908 65.5999C62.7271 65.5999 62.6544 65.5999 62.6908 65.5999ZM61.7453 63.3454C61.5635 63.9272 61.1998 64.0363 61.2362 63.3454C61.2726 62.509 61.818 62.7272 62.3998 62.3999C62.8726 62.1454 63.1271 61.1636 63.9635 61.7454C64.3271 61.9999 64.7635 61.7818 64.8726 62.1818C64.8726 62.1454 63.818 64.6181 64.3998 64.6181C63.2362 64.6181 63.7453 63.2363 64.1817 62.2908C63.7453 62.509 63.0544 63.8545 63.6362 64.109C63.3453 64.509 62.3998 65.0545 61.9271 64.6545C61.5271 64.2908 61.7453 63.8181 61.7453 63.3454ZM60.2908 64.3636C58.2544 64.3636 59.6362 61.2363 60.3271 61.4181C61.1271 61.6727 61.018 64.3999 60.2908 64.3636ZM58.0362 61.3818C57.0908 61.3454 57.4908 60.4363 58.1453 60.2545C58.7635 60.0727 60.0362 60.6545 60.4726 61.0545C59.818 61.2727 58.9817 61.2363 58.2544 61.2727C58.1817 60.5454 57.9998 60.7999 58.0362 61.3818Z" fill="#DC6243"/>
<path d="M65.0183 65.3819C63.9638 64.291 66.582 64.4001 67.0183 64.0001C67.3093 64.1092 69.5638 62.0364 70.1093 62.1819C69.7093 62.6546 68.8729 64.1092 68.2911 64.1092C67.8183 64.1092 67.3456 64.0364 66.982 64.3637C66.4365 64.8728 65.5638 65.1273 65.0183 65.3819Z" fill="#F49774"/>
<path d="M65.3457 64.0727C64.7639 64.4 64.2184 63.1636 65.2366 63.2727C65.8912 63.3454 66.5821 63.2 67.2002 63.3091C66.7275 63.8545 66.073 64.1454 65.3457 64.0727Z" fill="#F4B1A4"/>
<path d="M57.4907 63.5999C57.5998 63.7454 57.7088 63.8909 57.6725 64.109C57.6725 64.2545 57.4543 64.4727 57.5998 64.5454L58.1452 63.8909C57.9998 63.8545 56.8725 62.509 56.8725 62.3636L56.1088 62.7636C56.1452 62.909 56.3998 62.7636 56.5452 62.7636C56.727 62.7636 56.8725 62.909 57.0179 63.0181C56.6179 63.3454 55.6361 64.2181 55.527 64.2181C55.4907 64.2181 55.2725 64.0727 55.2725 64.2181C55.2725 64.2909 55.4907 64.4727 55.527 64.509L56.0361 65.1272C56.1816 65.0545 55.9998 64.9454 56.0725 64.8363C56.1088 64.7636 57.2361 63.8545 57.4907 63.5999ZM56.2543 61.9636C56.3634 61.9272 56.3998 62.0727 56.4725 61.9636L55.8907 61.2727C55.8179 61.1636 55.7088 61.0545 55.7088 61.2727C55.7452 61.4181 54.2543 62.6181 54.1816 62.6545C54.0725 62.6909 53.9998 62.5454 53.927 62.6909C54.1088 62.909 54.2543 63.0909 54.4361 63.309C54.5088 63.3818 54.5452 63.4545 54.6179 63.5272C54.6907 63.5999 54.6543 63.3818 54.6543 63.3818C54.6179 63.2727 54.7634 63.1636 54.8725 63.0909C55.2361 62.7272 56.1452 61.9636 56.2543 61.9636ZM54.1816 61.7454C53.7816 61.8545 53.3088 61.709 53.1998 61.2727C53.0543 60.8363 53.3452 60.3999 53.6725 60.1454C53.9998 59.8909 54.5088 59.9272 54.6907 60.3272C54.7634 60.509 54.727 60.7272 54.6543 60.909C54.6179 61.0181 54.5088 61.1272 54.6543 61.1999C54.8725 60.9454 55.0543 60.6909 55.2725 60.4363C55.0179 60.2909 54.9088 60.0363 54.727 59.8181C54.5088 59.5636 54.2543 59.309 53.8907 59.2727C53.1998 59.1636 52.5816 59.8909 52.5088 60.509C52.4725 60.8363 52.5816 61.1636 52.7998 61.4545C52.9816 61.6727 53.2361 61.8545 53.3816 62.109C53.4543 62.1454 54.0361 61.8545 54.1452 61.8181C54.2179 61.8181 54.1816 61.7818 54.1816 61.7454C53.9998 61.8181 54.1816 61.7454 54.1816 61.7454ZM63.4543 70.3272C63.1998 70.1454 62.5088 69.2363 62.3634 69.0545L62.2907 68.9454L62.2179 68.9818C62.1816 69.0181 62.2543 69.1272 62.2179 69.1999C62.0361 69.4908 60.8725 70.3636 60.7998 70.4363C60.6543 70.509 60.5088 70.3999 60.4361 70.509C60.6179 70.7272 61.0907 71.3454 61.1634 71.3454C61.2725 71.3454 61.1998 71.1636 61.1998 71.1272C61.2361 71.0545 61.8179 70.5454 62.0361 70.3636C62.1088 70.2908 62.1816 70.4727 62.2543 70.5454C62.327 70.6545 62.3634 70.7999 62.327 70.909C62.2907 70.9818 62.1452 71.1272 62.2543 71.1999C62.3998 71.0181 62.7998 70.5454 62.8725 70.4727C62.9452 70.3999 62.727 70.4727 62.7634 70.4363C62.6907 70.4727 62.5816 70.509 62.5088 70.4363C62.4725 70.4363 62.2543 70.1818 62.2907 70.1454C62.3998 70.0727 62.5088 69.9272 62.6543 69.8909C62.8725 69.8545 63.0179 70.2545 63.0543 70.3999C63.0907 70.5454 63.0907 70.6909 63.0179 70.7999C62.9816 70.909 62.9088 70.9818 63.0179 71.0181L63.527 70.3272C63.527 70.3636 63.4907 70.3636 63.4543 70.3272C63.4179 70.3272 63.4907 70.3636 63.4543 70.3272ZM60.1088 67.0908C59.8543 67.0908 59.5998 67.1999 59.3816 67.3818C58.8725 67.8181 58.7998 68.5818 59.1998 69.1272C59.6725 69.7454 60.4361 69.8181 61.0543 69.3818C61.5634 68.9454 61.6361 68.1818 61.2361 67.6363C60.9452 67.2727 60.5088 67.0908 60.1088 67.0908ZM60.5452 67.5999C60.8725 67.5636 61.0907 67.8909 60.9452 68.2545C60.7998 68.6181 60.4361 68.9818 60.0725 69.1272C59.6361 69.309 59.3452 68.9454 59.527 68.509C59.6725 68.1454 60.0361 67.7818 60.3998 67.6363C60.4361 67.6363 60.4725 67.5999 60.5452 67.5999ZM59.527 65.9272C59.6361 65.9272 59.7452 66.0727 59.8179 65.9272L59.3088 65.309C59.1634 65.3818 59.3088 65.4545 59.2725 65.5272C59.1998 65.6363 58.6543 65.709 58.5088 65.7454C58.5452 65.5999 58.727 65.1272 58.7998 65.0908C58.9452 64.9818 59.0179 65.1999 59.0907 65.0545L58.4361 64.2909C58.3634 64.2181 58.2907 64.0363 58.2179 64.1454C58.2179 64.1454 58.2179 64.509 58.1816 64.5454C58.1452 64.6181 57.9634 65.4181 57.7452 65.5999C57.6361 65.709 57.1998 66.0727 57.0907 66.109C56.9816 66.1454 56.9088 65.9636 56.7998 66.109L57.3816 66.7999C57.4179 66.8363 57.527 67.0181 57.5634 67.0181C57.6725 67.0545 57.5634 66.7999 57.5998 66.7636C57.6361 66.6545 58.1816 66.109 58.4361 66.0727C58.7634 65.9999 59.1634 65.8908 59.527 65.9272C59.5998 65.9272 59.4543 65.9272 59.527 65.9272ZM68.327 68.3636C68.3634 68.509 68.3998 68.6908 68.3634 68.8363C68.327 69.0545 68.1452 69.5272 67.8543 69.3818C67.5634 69.2363 67.3452 68.9818 67.0907 68.7636C67.2725 68.5454 67.4543 68.3636 67.7816 68.4727C67.8543 68.509 67.927 68.4727 67.8543 68.3999C67.7452 68.3272 67.127 67.9272 67.0907 67.9636C67.0179 68.0363 67.1998 68.1818 67.127 68.3272C67.0907 68.4363 66.9816 68.509 66.9088 68.6181C66.727 68.4727 66.4725 68.3272 66.6543 68.0727C66.7998 67.9272 66.9452 67.7818 67.1634 67.7454C67.3088 67.709 67.5998 67.8545 67.6361 67.709C67.3816 67.5999 67.127 67.4545 66.8725 67.3454C66.9088 67.5272 66.0725 68.3999 65.8907 68.6181C65.8543 68.6545 65.7452 68.7636 65.7452 68.7999C65.7452 68.909 65.8907 68.8363 65.8907 68.8363C65.9998 68.7999 67.4907 70.0363 67.527 70.1454C67.5634 70.2181 67.4907 70.2908 67.527 70.3272C67.527 70.3272 67.5634 70.3636 67.5998 70.3636C67.7088 70.2545 68.6543 68.9454 68.8725 68.909C68.6907 68.6181 68.5088 68.3272 68.327 68.0363C68.1816 68.109 68.2907 68.2908 68.327 68.3636ZM66.8725 69.9636C66.3998 69.6363 65.5634 70.2545 65.4179 70.3272C65.1634 70.4363 64.9816 70.1818 65.127 69.9636C65.2361 69.7818 65.4543 69.6727 65.6725 69.6727C65.7452 69.6727 65.9998 69.709 65.9998 69.6727C66.0361 69.6363 66.0361 69.6363 65.9998 69.5999C65.7816 69.4545 65.5998 69.309 65.3816 69.1999C65.3452 69.4545 65.0543 69.5999 64.9088 69.7818C64.727 69.9999 64.5452 70.2545 64.5452 70.509C64.5452 70.7636 64.6907 71.0181 64.9452 71.1272C65.1998 71.2727 65.4907 71.1636 65.7452 71.0181C65.8907 70.909 66.0361 70.7999 66.1816 70.7272C66.3998 70.6181 66.727 70.7272 66.6543 71.0181C66.5816 71.2727 66.327 71.4908 66.0725 71.5636C65.927 71.5999 65.7816 71.5999 65.6361 71.5272C65.527 71.4909 65.4179 71.3454 65.3452 71.4908L66.1816 72.0727C66.2179 71.8909 66.2907 71.8181 66.4361 71.709C66.6179 71.5636 66.7634 71.3818 66.9088 71.1999C67.1998 70.8727 67.3088 70.2908 66.8725 69.9636ZM73.2725 59.7454C73.2725 59.7818 73.2725 59.7818 73.2725 59.7454L72.9452 60.109L72.6543 60.4727C72.5816 60.5454 72.5452 60.5818 72.6543 60.6545C72.8361 60.5454 73.927 62.3999 73.8543 62.6545C73.6725 62.7272 72.2179 61.4545 72.1816 61.3818C72.1816 61.3454 72.2543 61.1272 72.1452 61.1636C72.1088 61.1636 71.9634 61.3818 71.927 61.4181L71.7088 61.6727C71.7816 61.7818 71.8179 61.6727 71.927 61.6727C71.9998 61.709 72.3634 61.9999 72.4725 62.0727C72.2907 62.0727 71.8543 62.109 71.7816 62.109C71.5634 62.1454 71.6725 61.9636 71.527 61.8909L70.9816 62.5454L70.6543 62.909C70.6543 62.909 70.6543 62.909 70.6543 62.9454C70.727 63.0181 70.6907 62.9818 70.7998 62.9454C70.9088 62.909 72.3634 64.109 72.3998 64.1818C72.4725 64.2909 72.3634 64.3999 72.5088 64.4727L72.9452 63.9636C72.9816 63.9272 72.9816 63.9272 72.9452 63.9272C72.8361 63.8545 72.8361 63.9636 72.6907 63.9636C72.5816 63.9272 71.6361 63.1636 71.3088 62.8727L73.2361 62.7999C73.3088 62.7999 73.4907 63.0181 73.4907 63.0909C73.4543 63.1636 73.3816 63.2363 73.4907 63.2727C73.5998 63.1272 73.7088 63.0181 73.8179 62.8727L73.8543 62.7999C73.8907 62.7999 73.8907 62.7636 73.8907 62.7272L73.927 62.6909C74.0361 62.5818 74.3634 62.2181 74.327 62.1818C74.2179 62.0727 74.1816 62.2909 74.0361 62.1818C73.9634 62.109 73.7452 61.7454 73.7088 61.6727C73.6361 61.5636 73.8543 61.4545 73.927 61.4181C74.1088 61.309 74.6907 61.1272 74.7634 61.4909C74.7634 61.5636 74.6907 61.6363 74.727 61.6727C74.727 61.6727 74.7634 61.7454 74.7998 61.709L75.5634 60.7636C75.527 60.7272 75.527 60.7272 75.4907 60.6909C75.3088 60.8727 73.4907 60.1454 73.3816 60.0363C73.3452 59.9636 73.3452 59.7454 73.2725 59.7454ZM73.1998 60.6909C73.4907 60.7999 73.7452 60.909 74.0361 61.0545C73.9634 61.0909 73.8907 61.1272 73.8179 61.1636C73.7452 61.1999 73.6725 61.2727 73.5998 61.3454L73.1998 60.6909ZM70.7998 63.4909C70.3998 63.4545 69.9998 63.6363 69.7088 63.9636C69.2725 64.509 69.3088 65.309 69.8543 65.7454C70.3998 66.1818 71.1998 66.0727 71.6361 65.5636C72.0725 65.0181 72.0361 64.2181 71.4907 63.7818C71.3088 63.6363 71.0543 63.5272 70.7998 63.4909ZM70.2907 64.0727C70.5088 64.0727 70.7634 64.2181 70.9088 64.3272C71.1998 64.509 71.7088 64.9454 71.4543 65.309C71.4543 65.2727 71.4907 65.2727 71.4179 65.3454C71.127 65.6363 70.6179 65.3818 70.3634 65.1636C70.1088 64.9818 69.6361 64.5454 69.927 64.1818C70.0361 64.109 70.1452 64.0727 70.2907 64.0727ZM69.1634 65.6363C68.727 65.5999 68.2907 65.8181 67.9634 66.2181C67.7452 66.509 67.4907 66.7636 67.2725 67.0545C67.3452 67.1636 67.4543 67.0181 67.5634 67.0908C67.6725 67.1636 69.0543 68.2908 69.0543 68.3636C69.0907 68.4727 68.9816 68.509 69.0907 68.5818C69.127 68.6181 70.1452 67.3454 70.2543 67.1272C70.3998 66.7272 70.2907 66.2545 69.9634 65.9636C69.9998 65.9999 70.0361 65.9999 69.9634 65.9636C69.6725 65.7454 69.4179 65.6363 69.1634 65.6363ZM68.7634 66.2181C68.7998 66.2181 68.8361 66.2181 68.8725 66.2181C69.3816 66.3636 70.1088 66.9818 69.6361 67.5272C69.5634 67.5999 69.6361 67.5272 69.4907 67.6727C69.4179 67.7454 67.9634 66.5818 68.0361 66.509C68.1816 66.3272 68.5088 66.1818 68.7634 66.2181Z" fill="white"/>
</svg>
